<!-- Generated by IcoMoon.io -->
<svg version="1.1" xmlns="http://www.w3.org/2000/svg" width="32" height="32" viewBox="0 0 32 32">
<title>Acept</title>
<path d="M30.359 13.236c-0.862 0-1.436 0.582-1.436 1.455v1.309c0 7.273-5.744 13.091-12.923 13.091s-12.923-5.818-12.923-13.091 5.744-13.091 12.923-13.091c1.867 0 3.59 0.436 5.313 1.164 0.718 0.291 1.58 0 1.867-0.727s0-1.6-0.718-1.891c-2.010-0.873-4.164-1.455-6.462-1.455-8.759 0-15.795 7.127-15.795 16s7.036 16 15.795 16c8.759 0 15.795-7.127 15.795-16v-1.309c0-0.873-0.574-1.455-1.436-1.455v0zM12.697 13.527c-0.574-0.582-1.436-0.582-2.010 0s-0.574 1.455 0 2.036l4.308 4.364c0.287 0.291 0.574 0.436 1.005 0.436s0.718-0.145 1.005-0.436l14.359-14.545c0.574-0.582 0.574-1.455 0-2.036s-1.436-0.582-2.010 0l-13.354 13.527-3.303-3.345z"></path>
</svg>
