<!-- Generated by IcoMoon.io -->
<svg version="1.1" xmlns="http://www.w3.org/2000/svg" width="32" height="32" viewBox="0 0 32 32">
<title>Computer</title>
<path d="M0.001 23.999v-19.999c0-0.832 0.288-1.536 0.864-2.112s1.291-0.875 2.144-0.896h25.982c0.832 0 1.546 0.299 2.144 0.896s0.885 1.301 0.864 2.112v19.999c0 0.832-0.288 1.536-0.864 2.112s-1.291 0.875-2.144 0.896h-9.983v1.184l6.24 0.8c0.491 0.128 0.736 0.469 0.736 1.024 0 0.277-0.085 0.512-0.256 0.704s-0.416 0.288-0.736 0.288h-17.983c-0.299 0-0.544-0.096-0.736-0.288s-0.277-0.427-0.256-0.704c0-0.555 0.245-0.896 0.736-1.024l6.24-0.8v-1.184h-9.983c-0.832 0-1.547-0.299-2.144-0.896s-0.885-1.301-0.864-2.112zM2.017 23.999c0 0.299 0.085 0.533 0.256 0.704s0.416 0.267 0.736 0.288h25.982c0.299 0 0.544-0.096 0.736-0.288s0.277-0.427 0.256-0.704v-19.999c0-0.299-0.085-0.533-0.256-0.704s-0.416-0.267-0.736-0.288h-25.982c-0.299 0-0.544 0.096-0.736 0.288s-0.277 0.427-0.256 0.704v19.999zM4.001 20v-13.983c0-0.299 0.096-0.544 0.288-0.736s0.427-0.288 0.704-0.288h22.015c0.277 0 0.512 0.096 0.704 0.288s0.288 0.437 0.288 0.736v13.983c0 0.299-0.096 0.533-0.288 0.704s-0.427 0.267-0.704 0.288h-22.015c-0.277 0-0.512-0.096-0.704-0.288s-0.288-0.427-0.288-0.704zM4.993 20h22.015v-13.983h-22.015v13.983z"></path>
</svg>
