<!-- Generated by IcoMoon.io -->
<svg version="1.1" xmlns="http://www.w3.org/2000/svg" width="32" height="32" viewBox="0 0 32 32">
<title>Doge</title>
<path d="M23.683 19.622c0 1.4 0.398 1.958 1.44 1.958 2.322 0 3.8-2.958 3.8-7.878 0-7.52-5.48-11.12-12.322-11.12-7.038 0-13.44 4.72-13.44 13.64 0 8.52 5.6 13.16 14.2 13.16 2.92 0 4.88-0.32 7.878-1.32l0.643 2.678c-2.96 0.962-6.123 1.24-8.562 1.24-11.28 0-17.322-6.2-17.322-15.76 0-9.64 7.002-16.2 16.642-16.2 10.040 0 15.358 6 15.358 13.36 0 6.24-1.958 11-8.118 11-2.802 0-4.64-1.12-4.88-3.602-0.72 2.76-2.64 3.602-5.242 3.602-3.48 0-6.4-2.682-6.4-8.080 0-5.44 2.562-8.8 7.162-8.8 2.44 0 3.96 0.96 4.637 2.48l1.162-2.12h3.36v11.762h0.003zM18.765 14.342c0-2.198-1.642-3.12-3.002-3.12-1.48 0-3.118 1.198-3.118 4.72 0 2.8 1.24 4.36 3.118 4.36 1.32 0 3.002-0.84 3.002-3.16v-2.8z"></path>
</svg>
