<!-- Generated by IcoMoon.io -->
<svg version="1.1" xmlns="http://www.w3.org/2000/svg" width="32" height="32" viewBox="0 0 32 32">
<title>Earth</title>
<path d="M13.518 0.162c-4.709 0.823-8.392 3.226-10.958 7.138-1.783 2.73-2.56 5.407-2.56 8.816 0 1.463 0.131 2.514 0.483 3.905 0.496 1.946 1.424 3.899 2.658 5.558 2.338 3.148 5.871 5.394 9.691 6.152 1.313 0.261 1.593 0.281 3.429 0.255 1.613-0.026 1.887-0.046 2.678-0.202 3.35-0.66 6.015-2.070 8.398-4.447 2.436-2.442 3.853-5.179 4.5-8.679 0.15-0.816 0.163-1.064 0.163-2.612 0-1.528-0.020-1.816-0.163-2.625-0.392-2.247-1.3-4.526-2.56-6.42-1.548-2.331-3.611-4.095-6.322-5.407-2.475-1.195-4.284-1.6-7.118-1.587-1.195 0.007-1.587 0.033-2.318 0.157zM16.411 1.129c0.255 0.111 0.784 0.673 1.156 1.234 0.777 1.182 1.404 2.991 1.927 5.584l0.046 0.215h-3.54c-3.337 0-3.533-0.007-3.5-0.118 0.020-0.059 0.137-0.581 0.268-1.156 0.47-2.044 0.986-3.468 1.6-4.428 0.758-1.175 1.398-1.6 2.044-1.332zM13.127 2.429c-0.731 1.541-1.156 2.821-1.541 4.689-0.098 0.451-0.202 0.869-0.235 0.927-0.052 0.111-0.222 0.118-2.109 0.118-1.13 0-2.057-0.020-2.057-0.039s0.196-0.418 0.431-0.882c1.045-2.051 2.39-3.664 3.944-4.715 0.496-0.34 1.796-1.025 1.94-1.025 0.039 0-0.124 0.418-0.372 0.927zM19.468 1.958c2.024 1.019 3.618 2.73 4.963 5.316l0.464 0.888h-4.238l-0.078-0.411c-0.17-0.901-0.673-2.808-0.953-3.638-0.17-0.483-0.483-1.247-0.705-1.691-0.222-0.451-0.411-0.836-0.424-0.869-0.026-0.065 0.34 0.091 0.973 0.405zM9.3 2.958c-1.215 1.28-2.077 2.547-2.893 4.258-0.183 0.392-0.385 0.764-0.444 0.829-0.091 0.104-0.242 0.118-1.378 0.118h-1.267l0.144-0.242c0.313-0.529 1.11-1.522 1.763-2.201 1.195-1.241 2.331-2.103 3.788-2.873 0.379-0.202 0.699-0.366 0.712-0.366s-0.176 0.216-0.425 0.477zM23.38 3.049c2.103 1.189 3.722 2.704 5.153 4.807l0.209 0.307-1.326-0.013-1.326-0.020-0.229-0.457c-1.084-2.201-1.776-3.239-3.076-4.63-0.575-0.614-0.503-0.614 0.594 0.007zM5.518 9.384c-0.144 0.366-0.633 2.469-0.744 3.22-0.124 0.81-0.268 2.305-0.268 2.749v0.189h-3.468l0.039-0.379c0.261-2.351 0.529-3.487 1.208-5.061 0.385-0.895 0.242-0.829 1.881-0.829 1.306 0 1.398 0.007 1.352 0.111zM11.095 9.547c0 0.157-0.098 1.561-0.209 3.122l-0.209 2.841-2.54 0.020-2.54 0.013 0.046-0.764c0.052-0.921 0.242-2.299 0.425-3.154 0.235-1.078 0.542-2.103 0.673-2.233 0.111-0.111 0.268-0.118 2.24-0.118h2.122l-0.007 0.274zM19.781 9.775c0.189 1.339 0.398 4.062 0.398 5.257v0.509h-4.18c-2.299 0-4.18-0.020-4.18-0.052 0.033-1.822 0.34-5.695 0.49-6.139 0.020-0.059 0.823-0.078 3.716-0.078h3.683l0.072 0.503zM25.293 9.384c0.111 0.131 0.483 1.404 0.692 2.371 0.189 0.914 0.333 2.011 0.379 2.952l0.039 0.836h-5.042l-0.033-0.346c-0.020-0.183-0.111-1.398-0.202-2.691s-0.183-2.547-0.202-2.795l-0.046-0.438h2.155c1.966 0 2.162 0.013 2.26 0.111zM29.335 9.384c0.287 0.327 0.836 1.718 1.13 2.854 0.229 0.882 0.379 1.829 0.457 2.762l0.039 0.542h-3.448l-0.039-0.803c-0.078-1.535-0.359-3.22-0.79-4.702l-0.222-0.764h1.391c1.234 0 1.398 0.013 1.482 0.111zM4.539 17.22c0.124 1.724 0.372 3.246 0.751 4.591 0.137 0.483 0.274 0.934 0.294 0.999 0.046 0.105-0.039 0.111-1.378 0.098l-1.43-0.020-0.209-0.392c-0.483-0.908-1.071-2.684-1.254-3.788-0.118-0.679-0.255-1.953-0.222-2.011 0.013-0.026 0.79-0.046 1.718-0.046h1.685l0.046 0.568zM10.88 19.395c0.118 1.489 0.229 2.893 0.248 3.115l0.033 0.411h-2.142c-1.731 0-2.162-0.020-2.22-0.091-0.196-0.235-0.66-1.933-0.888-3.272-0.17-1.006-0.327-2.651-0.268-2.808 0.033-0.085 0.353-0.098 2.534-0.085l2.501 0.020 0.202 2.71zM20.18 17.090c-0.007 1.162-0.215 3.86-0.411 5.244l-0.078 0.555-7.282 0.033-0.065-0.144c-0.033-0.085-0.163-1.339-0.294-2.795s-0.255-2.802-0.274-2.991l-0.039-0.34h8.444v0.438zM26.358 17.403c-0.046 0.882-0.176 1.881-0.372 2.841-0.183 0.914-0.627 2.423-0.758 2.56-0.098 0.111-0.281 0.118-2.22 0.118h-2.109v-0.209c0-0.248 0.372-5.224 0.431-5.721l0.033-0.34h5.042l-0.046 0.751zM30.955 16.816c0 0.346-0.34 2.416-0.49 2.991-0.287 1.104-0.921 2.704-1.189 2.998-0.098 0.105-0.242 0.118-1.489 0.118h-1.384l0.209-0.705c0.438-1.443 0.771-3.291 0.856-4.8l0.046-0.764h3.442v0.163zM6.021 24.143c0.059 0.065 0.307 0.529 0.562 1.032 0.744 1.463 1.554 2.632 2.619 3.768 0.261 0.281 0.438 0.509 0.398 0.509-0.118 0-1.11-0.542-1.763-0.967-1.143-0.738-2.155-1.613-3.011-2.599-0.575-0.66-1.365-1.704-1.365-1.802 0-0.026 0.555-0.052 1.228-0.052 1.091 0 1.247 0.013 1.332 0.111zM28.565 24.11c-0.026 0.046-0.287 0.411-0.588 0.81-1.313 1.776-3.174 3.363-5.146 4.375-0.692 0.359-0.705 0.392 0.294-0.718 1.045-1.156 1.744-2.194 2.397-3.566 0.196-0.411 0.405-0.803 0.457-0.869 0.085-0.098 0.242-0.111 1.365-0.111 0.999 0 1.26 0.020 1.221 0.078zM11.52 24.633c0.444 2.083 0.947 3.657 1.574 4.924 0.516 1.038 0.522 1.006-0.189 0.679-2.181-0.98-4.042-2.932-5.427-5.675l-0.229-0.464h4.16l0.111 0.536zM19.461 24.175c0 0.046-0.072 0.405-0.163 0.803-0.594 2.651-1.358 4.46-2.286 5.42-0.607 0.627-1.091 0.712-1.698 0.294-0.953-0.66-1.953-2.828-2.54-5.518-0.098-0.431-0.189-0.849-0.202-0.934l-0.033-0.144h3.461c2.723 0 3.461 0.020 3.461 0.078zM24.692 24.241c-0.091 0.248-0.784 1.489-1.097 1.979-0.483 0.744-1.078 1.463-1.757 2.129-0.705 0.686-1.156 1.032-1.913 1.482-0.483 0.287-1.45 0.744-1.495 0.705-0.013-0.013 0.196-0.451 0.464-0.973 0.575-1.123 0.901-2.077 1.352-3.931 0.183-0.758 0.346-1.411 0.359-1.456 0.020-0.059 0.496-0.078 2.083-0.078h2.064l-0.059 0.144z"></path>
</svg>
