<!-- Generated by IcoMoon.io -->
<svg version="1.1" xmlns="http://www.w3.org/2000/svg" width="32" height="32" viewBox="0 0 32 32">
<title>Horn</title>
<path d="M0 13.984c0-1.408 0.384-2.592 1.152-3.552s1.717-1.44 2.848-1.44h9.248c1.344 0 2.613-0.48 3.808-1.44s2.219-2.293 3.072-4h0.064c1.237-2.368 2.837-3.552 4.8-3.552 2.176 0 3.883 1.397 5.12 4.192s1.867 6.059 1.888 9.792-0.608 7.008-1.888 9.824c-1.28 2.816-2.987 4.213-5.12 4.192-1.963 0-3.563-1.184-4.8-3.552h-0.064c-1.664-3.307-3.787-5.099-6.368-5.376-0.128 0.043-0.213 0.064-0.256 0.064v0.064c-0.128 0.043-0.235 0.117-0.32 0.224-0.043 0.043-0.064 0.085-0.064 0.128-0.085 0.128-0.128 0.256-0.128 0.384v7.072c0 0.171 0.171 0.448 0.512 0.832s0.512 0.768 0.512 1.152v1.024c0 0.533-0.203 0.992-0.608 1.376s-0.875 0.587-1.408 0.608h-4c-0.533 0-1.003-0.203-1.408-0.608s-0.597-0.864-0.576-1.376v-9.024c0-0.533-0.203-1.003-0.608-1.408s-0.875-0.597-1.408-0.576c-1.131 0-2.080-0.48-2.848-1.44s-1.152-2.155-1.152-3.584zM2.016 13.984c0 0.853 0.192 1.568 0.576 2.144s0.853 0.864 1.408 0.864h7.008c-0.661-0.789-0.992-1.792-0.992-3.008s0.331-2.208 0.992-2.976h-7.008c-0.533 0-1.003 0.288-1.408 0.864s-0.597 1.28-0.576 2.112zM7.424 19.008c0.384 0.619 0.576 1.28 0.576 1.984v9.024h4v-0.896l-0.128-0.128c-0.576-0.704-0.864-1.365-0.864-1.984v-7.008c0-0.341 0.064-0.672 0.192-0.992h-3.776zM11.008 13.984c0 0.853 0.192 1.568 0.576 2.144s0.853 0.864 1.408 0.864h0.256c1.835 0 3.563 0.672 5.184 2.016-0.277-1.579-0.416-3.253-0.416-5.024 0-1.707 0.139-3.371 0.416-4.992-1.621 1.344-3.349 2.016-5.184 2.016h-0.256c-0.533 0-1.003 0.288-1.408 0.864s-0.597 1.28-0.576 2.112zM20 13.984c0 1.003 0.064 2.005 0.192 3.008h2.816c0.533 0 1.003-0.288 1.408-0.864s0.597-1.291 0.576-2.144-0.213-1.557-0.576-2.112c-0.363-0.555-0.832-0.843-1.408-0.864h-2.816c-0.128 1.003-0.192 1.995-0.192 2.976zM20.448 19.008c0.405 2.069 1.013 3.755 1.824 5.056s1.717 1.941 2.72 1.92c1.387 0 2.571-1.163 3.552-3.488s1.461-5.163 1.44-8.512c-0.021-3.349-0.501-6.176-1.44-8.48s-2.123-3.467-3.552-3.488c-1.003 0-1.909 0.64-2.72 1.92s-1.419 2.965-1.824 5.056h2.56c1.109 0 2.059 0.48 2.848 1.44s1.173 2.144 1.152 3.552c-0.021 1.408-0.405 2.603-1.152 3.584s-1.696 1.461-2.848 1.44h-2.56z"></path>
</svg>
