<!-- Generated by IcoMoon.io -->
<svg version="1.1" xmlns="http://www.w3.org/2000/svg" width="39" height="32" viewBox="0 0 39 32">
<title>loud</title>
<path d="M24.704 22.794l-3.695 3.634v-10.428c0-0.948-0.643-1.58-1.607-1.58s-1.607 0.632-1.607 1.58v10.428l-3.695-3.634c-0.643-0.632-1.607-0.632-2.249 0s-0.643 1.58 0 2.212l6.427 6.32c0.161 0.158 0.321 0.316 0.482 0.316 0.161 0.158 0.482 0.158 0.643 0.158s0.482 0 0.643-0.158c0.161-0.158 0.321-0.158 0.482-0.316l6.427-6.32c0.643-0.632 0.643-1.58 0-2.212s-1.607-0.632-2.249 0h-0zM36.915 13.63c-1.767-2.37-4.66-3.95-7.873-3.95h-0.803c-2.41-6.952-9.962-10.902-17.192-9.006-3.856 0.948-6.909 3.16-8.998 6.478-1.928 3.318-2.571 7.11-1.607 10.744 0.643 2.212 1.607 4.266 3.213 5.846 0.643 0.632 1.607 0.79 2.249 0.158s0.803-1.58 0.161-2.212c-1.125-1.264-2.089-2.844-2.41-4.582-0.803-2.844-0.321-5.846 1.285-8.374s4.017-4.424 6.909-5.056c5.945-1.58 12.211 2.054 13.657 7.9 0.161 0.632 0.803 1.264 1.607 1.264h1.928c2.089 0 4.017 0.948 5.302 2.686 0.964 1.422 1.446 3.002 1.125 4.74s-1.285 3.16-2.571 4.108c-0.803 0.474-0.964 1.422-0.321 2.212 0.321 0.474 0.803 0.632 1.285 0.632 0.321 0 0.643-0.158 0.964-0.316 2.089-1.422 3.535-3.634 4.017-6.162s-0.482-4.898-1.928-7.11v0z"></path>
</svg>
