<!-- Generated by IcoMoon.io -->
<svg version="1.1" xmlns="http://www.w3.org/2000/svg" width="1024" height="1024" viewBox="0 0 1024 1024">
<title></title>
<g id="icomoon-ignore">
</g>
<path d="M768 614.4c-112.93 0-204.8 91.87-204.8 204.8s91.87 204.8 204.8 204.8 204.8-91.87 204.8-204.8-91.87-204.8-204.8-204.8zM768 989.867c-94.106 0-170.667-76.561-170.667-170.667s76.561-170.667 170.667-170.667 170.667 76.561 170.667 170.667-76.561 170.667-170.667 170.667z"></path>
<path d="M870.4 802.133h-85.333v-85.333c0-9.438-7.629-17.067-17.067-17.067s-17.067 7.629-17.067 17.067v102.4c0 9.438 7.629 17.067 17.067 17.067h102.4c9.438 0 17.067-7.629 17.067-17.067s-7.629-17.067-17.067-17.067z"></path>
<path d="M341.333 375.467h341.333v-170.667h-341.333v170.667zM392.533 238.933h238.933v34.133h-238.933v-34.133zM392.533 307.2h238.933v34.133h-238.933v-34.133z"></path>
<path d="M512 819.2c0-141.158 114.842-256 256-256 23.671 0 46.49 3.482 68.267 9.523v-572.723h-785.067v1024h563.849c-62.413-46.729-103.049-121.003-103.049-204.8zM187.733 989.867h-102.4v-955.733h102.4v955.733zM307.2 170.667h409.6v238.933h-409.6v-238.933z"></path>
</svg>
