<!-- Generated by IcoMoon.io -->
<svg version="1.1" xmlns="http://www.w3.org/2000/svg" width="32" height="32" viewBox="0 0 32 32">
<title>Person</title>
<path d="M0.118 30.517c-0.298-0.915-0.032-1.659 0.798-2.233 2.531-1.659 5.626-2.893 9.285-3.701-1.787-2.233-3.052-4.945-3.797-8.136-0.213-1.17-0.33-2.467-0.351-3.893s0.223-3.010 0.734-4.754c0.51-1.744 1.212-3.212 2.106-4.403 1.787-2.233 4.158-3.35 7.115-3.35s5.318 1.117 7.083 3.35c0.915 1.212 1.627 2.68 2.138 4.403s0.744 3.308 0.702 4.754c-0.043 1.446-0.16 2.744-0.351 3.893-0.745 3.191-2.010 5.903-3.797 8.136 3.659 0.808 6.753 2.042 9.285 3.701 0.829 0.574 1.106 1.329 0.829 2.265s-0.925 1.404-1.946 1.404h-27.918c-0.447 0-0.851-0.138-1.212-0.415s-0.596-0.617-0.702-1.021zM2.032 29.975h27.918c-2.319-1.553-5.158-2.701-8.519-3.446l-2.52-0.51c-0.957 0.638-1.925 0.957-2.903 0.957s-1.957-0.319-2.935-0.957l-2.489 0.51c-3.403 0.745-6.254 1.893-8.551 3.446zM8.19 10.768c-0.277 2.191-0.106 4.403 0.511 6.636s1.638 4.212 3.063 5.935l0.319 0.447c1.191 1.383 2.499 2.074 3.924 2.074s2.733-0.691 3.924-2.074l0.287-0.447c1.425-1.744 2.446-3.722 3.063-5.935s0.787-4.424 0.51-6.636c-0.298-2.404-1.106-4.456-2.425-6.158s-3.105-2.552-5.36-2.552c-2.255 0-4.041 0.851-5.36 2.552s-2.138 3.754-2.457 6.158z"></path>
</svg>
