<!-- Generated by IcoMoon.io -->
<svg version="1.1" xmlns="http://www.w3.org/2000/svg" width="19" height="32" viewBox="0 0 19 32">
<title>Phone</title>
<path d="M15.996 0.010h-12.805c-1.762 0-3.192 1.429-3.192 3.192v25.595c0 1.764 1.429 3.193 3.192 3.193h12.803c1.764 0 3.193-1.43 3.193-3.192v-25.596c0-1.762-1.429-3.192-3.191-3.192zM9.594 30.391c-1.103 0-1.999-0.715-1.999-1.599s0.895-1.599 1.999-1.599c1.103 0 1.999 0.715 1.999 1.599s-0.895 1.599-1.999 1.599zM15.99 25.594h-12.792v-22.386h12.792v22.386z"></path>
</svg>
