<!-- Generated by IcoMoon.io -->
<svg version="1.1" xmlns="http://www.w3.org/2000/svg" width="32" height="32" viewBox="0 0 32 32">
<title>Phone1</title>
<path d="M28.044 18.849c-1.298-0.146-2.596-0.438-3.75-0.877-1.587-0.584-3.318-0.146-4.616 1.023l-1.010 1.023c-2.596-1.753-4.904-3.945-6.635-6.721l1.010-1.023c1.154-1.169 1.587-3.069 1.010-4.676-0.433-1.169-0.721-2.484-0.866-3.799-0.288-2.192-2.164-3.799-4.327-3.799h-4.327c-0.144 0-0.288 0-0.433 0-1.154 0.146-2.164 0.731-2.885 1.607s-1.010 2.046-1.010 3.215c0.433 4.676 2.164 9.352 4.616 13.297 2.308 3.653 5.481 6.868 9.087 9.205 3.895 2.63 8.51 4.237 13.126 4.676 0.144 0 0.289 0 0.433 0 1.154 0 2.308-0.439 3.029-1.315s1.298-1.9 1.298-3.069v-4.384c0-2.192-1.587-4.091-3.75-4.384v-0zM28.91 23.233v4.384c0 0.438-0.144 0.731-0.433 1.023s-0.577 0.439-1.154 0.439c-4.183-0.439-8.222-1.9-11.828-4.238-3.318-2.046-6.058-4.968-8.222-8.329-2.308-3.653-3.75-7.744-4.183-11.982 0-0.438 0.144-0.731 0.288-1.023 0.288-0.292 0.721-0.584 1.154-0.584h4.327c0.721 0 1.298 0.584 1.442 1.315 0.144 1.461 0.577 3.068 1.154 4.384 0.144 0.584 0 1.169-0.288 1.607l-1.875 1.753c-0.433 0.438-0.577 1.169-0.288 1.753 2.164 3.945 5.337 7.16 9.232 9.352 0.577 0.292 1.298 0.292 1.731-0.292l1.875-1.9c0.433-0.438 1.010-0.584 1.587-0.292 1.442 0.584 2.885 0.877 4.327 1.169 0.577 0.146 1.154 0.731 1.154 1.461z"></path>
</svg>
