<!-- Generated by IcoMoon.io -->
<svg version="1.1" xmlns="http://www.w3.org/2000/svg" width="32" height="32" viewBox="0 0 32 32">
<title>Plane</title>
<path d="M0.007 21.086c-0.043-0.384 0.107-0.682 0.448-0.896l29.97-19.991c0.17-0.128 0.362-0.192 0.576-0.192s0.405 0.064 0.576 0.192c0.32 0.213 0.458 0.544 0.416 0.992l-4.99 30.002c-0.085 0.277-0.256 0.501-0.512 0.672-0.149 0.085-0.309 0.128-0.48 0.128-0.128 0-0.256-0.021-0.384-0.064l-9.692-3.87-2.047 3.423c-0.213 0.341-0.512 0.512-0.896 0.512s-0.672-0.171-0.864-0.512l-3.678-6.429-7.804-3.103c-0.384-0.171-0.597-0.458-0.64-0.864zM3.142 20.734l6.045 2.463c0.043 0.043 0.096 0.075 0.16 0.096l0.096 0.064 16.856-18.040-23.157 15.417zM10.21 24.060l2.783 4.862 16.121-25.173-18.903 20.311zM16.064 26.043c0.256 0.043 0.469 0.085 0.64 0.128l8.476 3.454 3.998-23.925-13.114 20.343z"></path>
</svg>
