<!-- Generated by IcoMoon.io -->
<svg version="1.1" xmlns="http://www.w3.org/2000/svg" width="32" height="32" viewBox="0 0 32 32">
<title>Share</title>
<path d="M24.727 20.364c-1.6 0-3.055 0.727-4.073 1.745l-7.709-4.509c0-0.582 0.145-1.018 0.145-1.6s-0.145-1.018-0.291-1.6l7.709-4.509c1.164 1.018 2.618 1.745 4.218 1.745 3.2 0 5.818-2.618 5.818-5.818s-2.618-5.818-5.818-5.818c-3.2 0-5.818 2.618-5.818 5.818 0 0.582 0.145 1.018 0.291 1.6l-7.855 4.509c-1.018-1.018-2.473-1.745-4.073-1.745-3.2 0-5.818 2.618-5.818 5.818s2.618 5.818 5.818 5.818c1.6 0 3.055-0.727 4.073-1.745l7.709 4.509c0 0.582-0.145 1.018-0.145 1.6 0 3.2 2.618 5.818 5.818 5.818s5.818-2.618 5.818-5.818c0-3.2-2.618-5.818-5.818-5.818v0zM24.727 2.909c1.6 0 2.909 1.309 2.909 2.909s-1.309 2.909-2.909 2.909-2.909-1.309-2.909-2.909c0-1.6 1.309-2.909 2.909-2.909zM7.273 18.909c-1.6 0-2.909-1.309-2.909-2.909s1.309-2.909 2.909-2.909 2.909 1.309 2.909 2.909c0 1.6-1.309 2.909-2.909 2.909zM24.727 29.091c-1.6 0-2.909-1.309-2.909-2.909 0-0.582 0.145-1.018 0.436-1.454 0.436-0.873 1.454-1.454 2.473-1.454 1.6 0 2.909 1.309 2.909 2.909s-1.309 2.909-2.909 2.909v0z"></path>
</svg>
