<svg aria-hidden="true" style="position: absolute; width: 0; height: 0; overflow: hidden;" version="1.1" xmlns="http://www.w3.org/2000/svg" xmlns:xlink="http://www.w3.org/1999/xlink">
<defs>
<symbol id="icon-message-mail" viewBox="0 0 32 32">
<path d="M31.976 12.35c-0-0.048-0.011-0.121-0.029-0.163-0.049-0.178-0.159-0.341-0.322-0.455l-4.581-3.184v-3.413c0-0.452-0.367-0.819-0.82-0.819h-5.27l-4.484-3.117c-0.28-0.195-0.652-0.196-0.933-0.002l-4.513 3.119h-5.247c-0.453 0-0.819 0.367-0.819 0.819v3.373l-4.603 3.181c-0.226 0.156-0.349 0.407-0.353 0.662-0 0.005-0.001 0.009-0.001 0.014l0.024 17.765c0 0.217 0.087 0.426 0.241 0.579s0.362 0.239 0.579 0.239c0 0 0.001 0 0.001 0l30.337-0.042c0.453-0.001 0.819-0.368 0.818-0.821l-0.024-17.737zM27.043 10.544l2.619 1.82-2.619 1.821v-3.64zM16.001 2.868l2.082 1.447h-4.176l2.094-1.447zM6.596 5.954h18.808v9.37l-6.315 4.39-2.575-1.997c-0.004-0.003-0.007-0.005-0.011-0.008-0.288-0.216-0.695-0.224-0.993 0.008l-2.593 2.012-6.321-4.368v-9.406zM4.957 10.5v3.728l-2.697-1.864 2.697-1.864zM1.641 13.929l9.917 6.853-9.897 7.677-0.020-14.53zM3.242 29.307l12.77-9.905 12.724 9.87-25.495 0.035zM20.447 20.767l9.892-6.877 0.020 14.566-9.912-7.689z"></path>
<path d="M21.548 9.232h-11.096c-0.453 0-0.819 0.367-0.819 0.819s0.367 0.819 0.819 0.819h11.096c0.453 0 0.82-0.367 0.82-0.819s-0.367-0.819-0.82-0.819z"></path>
<path d="M21.548 13.493h-11.096c-0.453 0-0.819 0.367-0.819 0.819s0.367 0.819 0.819 0.819h11.096c0.453 0 0.82-0.367 0.82-0.819s-0.367-0.819-0.82-0.819z"></path>
</symbol>
<symbol id="icon-notebook" viewBox="0 0 32 32">
<path d="M24 19.2c-3.529 0-6.4 2.871-6.4 6.4s2.871 6.4 6.4 6.4 6.4-2.871 6.4-6.4-2.871-6.4-6.4-6.4zM24 30.933c-2.941 0-5.333-2.393-5.333-5.333s2.393-5.333 5.333-5.333 5.333 2.393 5.333 5.333-2.393 5.333-5.333 5.333z"></path>
<path d="M27.2 25.067h-2.667v-2.667c0-0.295-0.238-0.533-0.533-0.533s-0.533 0.238-0.533 0.533v3.2c0 0.295 0.238 0.533 0.533 0.533h3.2c0.295 0 0.533-0.238 0.533-0.533s-0.238-0.533-0.533-0.533z"></path>
<path d="M10.667 11.733h10.667v-5.333h-10.667v5.333zM12.267 7.467h7.467v1.067h-7.467v-1.067zM12.267 9.6h7.467v1.067h-7.467v-1.067z"></path>
<path d="M16 25.6c0-4.411 3.589-8 8-8 0.74 0 1.453 0.109 2.133 0.298v-17.898h-24.533v32h17.62c-1.95-1.46-3.22-3.781-3.22-6.4zM5.867 30.933h-3.2v-29.867h3.2v29.867zM9.6 5.333h12.8v7.467h-12.8v-7.467z"></path>
</symbol>
<symbol id="icon-map-marker" viewBox="0 0 32 32">
<path d="M16 0c6.873 0 12.444 5.014 12.444 11.2 0 10.1-12.444 20.8-12.444 20.8s-12.444-10.61-12.444-20.8c0-6.186 5.572-11.2 12.444-11.2z"></path>
<path d="M22.222 12.444c0 3.436-2.786 6.222-6.222 6.222s-6.222-2.786-6.222-6.222c0-3.436 2.786-6.222 6.222-6.222s6.222 2.786 6.222 6.222z"></path>
</symbol>
<symbol id="icon-Doge" viewBox="0 0 32 32">
<path d="M23.683 19.622c0 1.4 0.398 1.958 1.44 1.958 2.322 0 3.8-2.958 3.8-7.878 0-7.52-5.48-11.12-12.322-11.12-7.038 0-13.44 4.72-13.44 13.64 0 8.52 5.6 13.16 14.2 13.16 2.92 0 4.88-0.32 7.878-1.32l0.643 2.678c-2.96 0.962-6.123 1.24-8.562 1.24-11.28 0-17.322-6.2-17.322-15.76 0-9.64 7.002-16.2 16.642-16.2 10.040 0 15.358 6 15.358 13.36 0 6.24-1.958 11-8.118 11-2.802 0-4.64-1.12-4.88-3.602-0.72 2.76-2.64 3.602-5.242 3.602-3.48 0-6.4-2.682-6.4-8.080 0-5.44 2.562-8.8 7.162-8.8 2.44 0 3.96 0.96 4.637 2.48l1.162-2.12h3.36v11.762h0.003zM18.765 14.342c0-2.198-1.642-3.12-3.002-3.12-1.48 0-3.118 1.198-3.118 4.72 0 2.8 1.24 4.36 3.118 4.36 1.32 0 3.002-0.84 3.002-3.16v-2.8z"></path>
</symbol>
<symbol id="icon-Phone" viewBox="0 0 19 32">
<path d="M15.996 0.010h-12.805c-1.762 0-3.192 1.429-3.192 3.192v25.595c0 1.764 1.429 3.193 3.192 3.193h12.803c1.764 0 3.193-1.43 3.193-3.192v-25.596c0-1.762-1.429-3.192-3.191-3.192zM9.594 30.391c-1.103 0-1.999-0.715-1.999-1.599s0.895-1.599 1.999-1.599c1.103 0 1.999 0.715 1.999 1.599s-0.895 1.599-1.999 1.599zM15.99 25.594h-12.792v-22.386h12.792v22.386z"></path>
</symbol>
<symbol id="icon-Computer" viewBox="0 0 32 32">
<path d="M0.001 23.999v-19.999c0-0.832 0.288-1.536 0.864-2.112s1.291-0.875 2.144-0.896h25.982c0.832 0 1.546 0.299 2.144 0.896s0.885 1.301 0.864 2.112v19.999c0 0.832-0.288 1.536-0.864 2.112s-1.291 0.875-2.144 0.896h-9.983v1.184l6.24 0.8c0.491 0.128 0.736 0.469 0.736 1.024 0 0.277-0.085 0.512-0.256 0.704s-0.416 0.288-0.736 0.288h-17.983c-0.299 0-0.544-0.096-0.736-0.288s-0.277-0.427-0.256-0.704c0-0.555 0.245-0.896 0.736-1.024l6.24-0.8v-1.184h-9.983c-0.832 0-1.547-0.299-2.144-0.896s-0.885-1.301-0.864-2.112zM2.017 23.999c0 0.299 0.085 0.533 0.256 0.704s0.416 0.267 0.736 0.288h25.982c0.299 0 0.544-0.096 0.736-0.288s0.277-0.427 0.256-0.704v-19.999c0-0.299-0.085-0.533-0.256-0.704s-0.416-0.267-0.736-0.288h-25.982c-0.299 0-0.544 0.096-0.736 0.288s-0.277 0.427-0.256 0.704v19.999zM4.001 20v-13.983c0-0.299 0.096-0.544 0.288-0.736s0.427-0.288 0.704-0.288h22.015c0.277 0 0.512 0.096 0.704 0.288s0.288 0.437 0.288 0.736v13.983c0 0.299-0.096 0.533-0.288 0.704s-0.427 0.267-0.704 0.288h-22.015c-0.277 0-0.512-0.096-0.704-0.288s-0.288-0.427-0.288-0.704zM4.993 20h22.015v-13.983h-22.015v13.983z"></path>
</symbol>
<symbol id="icon-Share" viewBox="0 0 32 32">
<path d="M24.727 20.364c-1.6 0-3.055 0.727-4.073 1.745l-7.709-4.509c0-0.582 0.145-1.018 0.145-1.6s-0.145-1.018-0.291-1.6l7.709-4.509c1.164 1.018 2.618 1.745 4.218 1.745 3.2 0 5.818-2.618 5.818-5.818s-2.618-5.818-5.818-5.818c-3.2 0-5.818 2.618-5.818 5.818 0 0.582 0.145 1.018 0.291 1.6l-7.855 4.509c-1.018-1.018-2.473-1.745-4.073-1.745-3.2 0-5.818 2.618-5.818 5.818s2.618 5.818 5.818 5.818c1.6 0 3.055-0.727 4.073-1.745l7.709 4.509c0 0.582-0.145 1.018-0.145 1.6 0 3.2 2.618 5.818 5.818 5.818s5.818-2.618 5.818-5.818c0-3.2-2.618-5.818-5.818-5.818v0zM24.727 2.909c1.6 0 2.909 1.309 2.909 2.909s-1.309 2.909-2.909 2.909-2.909-1.309-2.909-2.909c0-1.6 1.309-2.909 2.909-2.909zM7.273 18.909c-1.6 0-2.909-1.309-2.909-2.909s1.309-2.909 2.909-2.909 2.909 1.309 2.909 2.909c0 1.6-1.309 2.909-2.909 2.909zM24.727 29.091c-1.6 0-2.909-1.309-2.909-2.909 0-0.582 0.145-1.018 0.436-1.454 0.436-0.873 1.454-1.454 2.473-1.454 1.6 0 2.909 1.309 2.909 2.909s-1.309 2.909-2.909 2.909v0z"></path>
</symbol>
<symbol id="icon-Horn" viewBox="0 0 32 32">
<path d="M0 13.984c0-1.408 0.384-2.592 1.152-3.552s1.717-1.44 2.848-1.44h9.248c1.344 0 2.613-0.48 3.808-1.44s2.219-2.293 3.072-4h0.064c1.237-2.368 2.837-3.552 4.8-3.552 2.176 0 3.883 1.397 5.12 4.192s1.867 6.059 1.888 9.792-0.608 7.008-1.888 9.824c-1.28 2.816-2.987 4.213-5.12 4.192-1.963 0-3.563-1.184-4.8-3.552h-0.064c-1.664-3.307-3.787-5.099-6.368-5.376-0.128 0.043-0.213 0.064-0.256 0.064v0.064c-0.128 0.043-0.235 0.117-0.32 0.224-0.043 0.043-0.064 0.085-0.064 0.128-0.085 0.128-0.128 0.256-0.128 0.384v7.072c0 0.171 0.171 0.448 0.512 0.832s0.512 0.768 0.512 1.152v1.024c0 0.533-0.203 0.992-0.608 1.376s-0.875 0.587-1.408 0.608h-4c-0.533 0-1.003-0.203-1.408-0.608s-0.597-0.864-0.576-1.376v-9.024c0-0.533-0.203-1.003-0.608-1.408s-0.875-0.597-1.408-0.576c-1.131 0-2.080-0.48-2.848-1.44s-1.152-2.155-1.152-3.584zM2.016 13.984c0 0.853 0.192 1.568 0.576 2.144s0.853 0.864 1.408 0.864h7.008c-0.661-0.789-0.992-1.792-0.992-3.008s0.331-2.208 0.992-2.976h-7.008c-0.533 0-1.003 0.288-1.408 0.864s-0.597 1.28-0.576 2.112zM7.424 19.008c0.384 0.619 0.576 1.28 0.576 1.984v9.024h4v-0.896l-0.128-0.128c-0.576-0.704-0.864-1.365-0.864-1.984v-7.008c0-0.341 0.064-0.672 0.192-0.992h-3.776zM11.008 13.984c0 0.853 0.192 1.568 0.576 2.144s0.853 0.864 1.408 0.864h0.256c1.835 0 3.563 0.672 5.184 2.016-0.277-1.579-0.416-3.253-0.416-5.024 0-1.707 0.139-3.371 0.416-4.992-1.621 1.344-3.349 2.016-5.184 2.016h-0.256c-0.533 0-1.003 0.288-1.408 0.864s-0.597 1.28-0.576 2.112zM20 13.984c0 1.003 0.064 2.005 0.192 3.008h2.816c0.533 0 1.003-0.288 1.408-0.864s0.597-1.291 0.576-2.144-0.213-1.557-0.576-2.112c-0.363-0.555-0.832-0.843-1.408-0.864h-2.816c-0.128 1.003-0.192 1.995-0.192 2.976zM20.448 19.008c0.405 2.069 1.013 3.755 1.824 5.056s1.717 1.941 2.72 1.92c1.387 0 2.571-1.163 3.552-3.488s1.461-5.163 1.44-8.512c-0.021-3.349-0.501-6.176-1.44-8.48s-2.123-3.467-3.552-3.488c-1.003 0-1.909 0.64-2.72 1.92s-1.419 2.965-1.824 5.056h2.56c1.109 0 2.059 0.48 2.848 1.44s1.173 2.144 1.152 3.552c-0.021 1.408-0.405 2.603-1.152 3.584s-1.696 1.461-2.848 1.44h-2.56z"></path>
</symbol>
<symbol id="icon-Acept" viewBox="0 0 32 32">
<path d="M30.359 13.236c-0.862 0-1.436 0.582-1.436 1.455v1.309c0 7.273-5.744 13.091-12.923 13.091s-12.923-5.818-12.923-13.091 5.744-13.091 12.923-13.091c1.867 0 3.59 0.436 5.313 1.164 0.718 0.291 1.58 0 1.867-0.727s0-1.6-0.718-1.891c-2.010-0.873-4.164-1.455-6.462-1.455-8.759 0-15.795 7.127-15.795 16s7.036 16 15.795 16c8.759 0 15.795-7.127 15.795-16v-1.309c0-0.873-0.574-1.455-1.436-1.455v0zM12.697 13.527c-0.574-0.582-1.436-0.582-2.010 0s-0.574 1.455 0 2.036l4.308 4.364c0.287 0.291 0.574 0.436 1.005 0.436s0.718-0.145 1.005-0.436l14.359-14.545c0.574-0.582 0.574-1.455 0-2.036s-1.436-0.582-2.010 0l-13.354 13.527-3.303-3.345z"></path>
</symbol>
<symbol id="icon-Cancel" viewBox="0 0 32 32">
<path d="M19.2 16l12.114-12.114c0.914-0.914 0.914-2.286 0-3.2s-2.286-0.914-3.2 0l-12.114 12.114-12.114-12.114c-0.914-0.914-2.286-0.914-3.2 0s-0.914 2.286 0 3.2l12.114 12.114-12.114 12.114c-0.914 0.914-0.914 2.286 0 3.2 0.457 0.457 0.914 0.686 1.6 0.686s1.143-0.228 1.6-0.686l12.114-12.114 12.114 12.114c0.457 0.457 1.143 0.686 1.6 0.686s1.143-0.228 1.6-0.686c0.914-0.914 0.914-2.286 0-3.2l-12.114-12.114z"></path>
</symbol>
<symbol id="icon-Earth" viewBox="0 0 32 32">
<path d="M13.518 0.162c-4.709 0.823-8.392 3.226-10.958 7.138-1.783 2.73-2.56 5.407-2.56 8.816 0 1.463 0.131 2.514 0.483 3.905 0.496 1.946 1.424 3.899 2.658 5.558 2.338 3.148 5.871 5.394 9.691 6.152 1.313 0.261 1.593 0.281 3.429 0.255 1.613-0.026 1.887-0.046 2.678-0.202 3.35-0.66 6.015-2.070 8.398-4.447 2.436-2.442 3.853-5.179 4.5-8.679 0.15-0.816 0.163-1.064 0.163-2.612 0-1.528-0.020-1.816-0.163-2.625-0.392-2.247-1.3-4.526-2.56-6.42-1.548-2.331-3.611-4.095-6.322-5.407-2.475-1.195-4.284-1.6-7.118-1.587-1.195 0.007-1.587 0.033-2.318 0.157zM16.411 1.129c0.255 0.111 0.784 0.673 1.156 1.234 0.777 1.182 1.404 2.991 1.927 5.584l0.046 0.215h-3.54c-3.337 0-3.533-0.007-3.5-0.118 0.020-0.059 0.137-0.581 0.268-1.156 0.47-2.044 0.986-3.468 1.6-4.428 0.758-1.175 1.398-1.6 2.044-1.332zM13.127 2.429c-0.731 1.541-1.156 2.821-1.541 4.689-0.098 0.451-0.202 0.869-0.235 0.927-0.052 0.111-0.222 0.118-2.109 0.118-1.13 0-2.057-0.020-2.057-0.039s0.196-0.418 0.431-0.882c1.045-2.051 2.39-3.664 3.944-4.715 0.496-0.34 1.796-1.025 1.94-1.025 0.039 0-0.124 0.418-0.372 0.927zM19.468 1.958c2.024 1.019 3.618 2.73 4.963 5.316l0.464 0.888h-4.238l-0.078-0.411c-0.17-0.901-0.673-2.808-0.953-3.638-0.17-0.483-0.483-1.247-0.705-1.691-0.222-0.451-0.411-0.836-0.424-0.869-0.026-0.065 0.34 0.091 0.973 0.405zM9.3 2.958c-1.215 1.28-2.077 2.547-2.893 4.258-0.183 0.392-0.385 0.764-0.444 0.829-0.091 0.104-0.242 0.118-1.378 0.118h-1.267l0.144-0.242c0.313-0.529 1.11-1.522 1.763-2.201 1.195-1.241 2.331-2.103 3.788-2.873 0.379-0.202 0.699-0.366 0.712-0.366s-0.176 0.216-0.425 0.477zM23.38 3.049c2.103 1.189 3.722 2.704 5.153 4.807l0.209 0.307-1.326-0.013-1.326-0.020-0.229-0.457c-1.084-2.201-1.776-3.239-3.076-4.63-0.575-0.614-0.503-0.614 0.594 0.007zM5.518 9.384c-0.144 0.366-0.633 2.469-0.744 3.22-0.124 0.81-0.268 2.305-0.268 2.749v0.189h-3.468l0.039-0.379c0.261-2.351 0.529-3.487 1.208-5.061 0.385-0.895 0.242-0.829 1.881-0.829 1.306 0 1.398 0.007 1.352 0.111zM11.095 9.547c0 0.157-0.098 1.561-0.209 3.122l-0.209 2.841-2.54 0.020-2.54 0.013 0.046-0.764c0.052-0.921 0.242-2.299 0.425-3.154 0.235-1.078 0.542-2.103 0.673-2.233 0.111-0.111 0.268-0.118 2.24-0.118h2.122l-0.007 0.274zM19.781 9.775c0.189 1.339 0.398 4.062 0.398 5.257v0.509h-4.18c-2.299 0-4.18-0.020-4.18-0.052 0.033-1.822 0.34-5.695 0.49-6.139 0.020-0.059 0.823-0.078 3.716-0.078h3.683l0.072 0.503zM25.293 9.384c0.111 0.131 0.483 1.404 0.692 2.371 0.189 0.914 0.333 2.011 0.379 2.952l0.039 0.836h-5.042l-0.033-0.346c-0.020-0.183-0.111-1.398-0.202-2.691s-0.183-2.547-0.202-2.795l-0.046-0.438h2.155c1.966 0 2.162 0.013 2.26 0.111zM29.335 9.384c0.287 0.327 0.836 1.718 1.13 2.854 0.229 0.882 0.379 1.829 0.457 2.762l0.039 0.542h-3.448l-0.039-0.803c-0.078-1.535-0.359-3.22-0.79-4.702l-0.222-0.764h1.391c1.234 0 1.398 0.013 1.482 0.111zM4.539 17.22c0.124 1.724 0.372 3.246 0.751 4.591 0.137 0.483 0.274 0.934 0.294 0.999 0.046 0.105-0.039 0.111-1.378 0.098l-1.43-0.020-0.209-0.392c-0.483-0.908-1.071-2.684-1.254-3.788-0.118-0.679-0.255-1.953-0.222-2.011 0.013-0.026 0.79-0.046 1.718-0.046h1.685l0.046 0.568zM10.88 19.395c0.118 1.489 0.229 2.893 0.248 3.115l0.033 0.411h-2.142c-1.731 0-2.162-0.020-2.22-0.091-0.196-0.235-0.66-1.933-0.888-3.272-0.17-1.006-0.327-2.651-0.268-2.808 0.033-0.085 0.353-0.098 2.534-0.085l2.501 0.020 0.202 2.71zM20.18 17.090c-0.007 1.162-0.215 3.86-0.411 5.244l-0.078 0.555-7.282 0.033-0.065-0.144c-0.033-0.085-0.163-1.339-0.294-2.795s-0.255-2.802-0.274-2.991l-0.039-0.34h8.444v0.438zM26.358 17.403c-0.046 0.882-0.176 1.881-0.372 2.841-0.183 0.914-0.627 2.423-0.758 2.56-0.098 0.111-0.281 0.118-2.22 0.118h-2.109v-0.209c0-0.248 0.372-5.224 0.431-5.721l0.033-0.34h5.042l-0.046 0.751zM30.955 16.816c0 0.346-0.34 2.416-0.49 2.991-0.287 1.104-0.921 2.704-1.189 2.998-0.098 0.105-0.242 0.118-1.489 0.118h-1.384l0.209-0.705c0.438-1.443 0.771-3.291 0.856-4.8l0.046-0.764h3.442v0.163zM6.021 24.143c0.059 0.065 0.307 0.529 0.562 1.032 0.744 1.463 1.554 2.632 2.619 3.768 0.261 0.281 0.438 0.509 0.398 0.509-0.118 0-1.11-0.542-1.763-0.967-1.143-0.738-2.155-1.613-3.011-2.599-0.575-0.66-1.365-1.704-1.365-1.802 0-0.026 0.555-0.052 1.228-0.052 1.091 0 1.247 0.013 1.332 0.111zM28.565 24.11c-0.026 0.046-0.287 0.411-0.588 0.81-1.313 1.776-3.174 3.363-5.146 4.375-0.692 0.359-0.705 0.392 0.294-0.718 1.045-1.156 1.744-2.194 2.397-3.566 0.196-0.411 0.405-0.803 0.457-0.869 0.085-0.098 0.242-0.111 1.365-0.111 0.999 0 1.26 0.020 1.221 0.078zM11.52 24.633c0.444 2.083 0.947 3.657 1.574 4.924 0.516 1.038 0.522 1.006-0.189 0.679-2.181-0.98-4.042-2.932-5.427-5.675l-0.229-0.464h4.16l0.111 0.536zM19.461 24.175c0 0.046-0.072 0.405-0.163 0.803-0.594 2.651-1.358 4.46-2.286 5.42-0.607 0.627-1.091 0.712-1.698 0.294-0.953-0.66-1.953-2.828-2.54-5.518-0.098-0.431-0.189-0.849-0.202-0.934l-0.033-0.144h3.461c2.723 0 3.461 0.020 3.461 0.078zM24.692 24.241c-0.091 0.248-0.784 1.489-1.097 1.979-0.483 0.744-1.078 1.463-1.757 2.129-0.705 0.686-1.156 1.032-1.913 1.482-0.483 0.287-1.45 0.744-1.495 0.705-0.013-0.013 0.196-0.451 0.464-0.973 0.575-1.123 0.901-2.077 1.352-3.931 0.183-0.758 0.346-1.411 0.359-1.456 0.020-0.059 0.496-0.078 2.083-0.078h2.064l-0.059 0.144z"></path>
</symbol>
<symbol id="icon-Person" viewBox="0 0 32 32">
<path d="M0.118 30.517c-0.298-0.915-0.032-1.659 0.798-2.233 2.531-1.659 5.626-2.893 9.285-3.701-1.787-2.233-3.052-4.945-3.797-8.136-0.213-1.17-0.33-2.467-0.351-3.893s0.223-3.010 0.734-4.754c0.51-1.744 1.212-3.212 2.106-4.403 1.787-2.233 4.158-3.35 7.115-3.35s5.318 1.117 7.083 3.35c0.915 1.212 1.627 2.68 2.138 4.403s0.744 3.308 0.702 4.754c-0.043 1.446-0.16 2.744-0.351 3.893-0.745 3.191-2.010 5.903-3.797 8.136 3.659 0.808 6.753 2.042 9.285 3.701 0.829 0.574 1.106 1.329 0.829 2.265s-0.925 1.404-1.946 1.404h-27.918c-0.447 0-0.851-0.138-1.212-0.415s-0.596-0.617-0.702-1.021zM2.032 29.975h27.918c-2.319-1.553-5.158-2.701-8.519-3.446l-2.52-0.51c-0.957 0.638-1.925 0.957-2.903 0.957s-1.957-0.319-2.935-0.957l-2.489 0.51c-3.403 0.745-6.254 1.893-8.551 3.446zM8.19 10.768c-0.277 2.191-0.106 4.403 0.511 6.636s1.638 4.212 3.063 5.935l0.319 0.447c1.191 1.383 2.499 2.074 3.924 2.074s2.733-0.691 3.924-2.074l0.287-0.447c1.425-1.744 2.446-3.722 3.063-5.935s0.787-4.424 0.51-6.636c-0.298-2.404-1.106-4.456-2.425-6.158s-3.105-2.552-5.36-2.552c-2.255 0-4.041 0.851-5.36 2.552s-2.138 3.754-2.457 6.158z"></path>
</symbol>
<symbol id="icon-loud" viewBox="0 0 39 32">
<path d="M24.704 22.794l-3.695 3.634v-10.428c0-0.948-0.643-1.58-1.607-1.58s-1.607 0.632-1.607 1.58v10.428l-3.695-3.634c-0.643-0.632-1.607-0.632-2.249 0s-0.643 1.58 0 2.212l6.427 6.32c0.161 0.158 0.321 0.316 0.482 0.316 0.161 0.158 0.482 0.158 0.643 0.158s0.482 0 0.643-0.158c0.161-0.158 0.321-0.158 0.482-0.316l6.427-6.32c0.643-0.632 0.643-1.58 0-2.212s-1.607-0.632-2.249 0h-0zM36.915 13.63c-1.767-2.37-4.66-3.95-7.873-3.95h-0.803c-2.41-6.952-9.962-10.902-17.192-9.006-3.856 0.948-6.909 3.16-8.998 6.478-1.928 3.318-2.571 7.11-1.607 10.744 0.643 2.212 1.607 4.266 3.213 5.846 0.643 0.632 1.607 0.79 2.249 0.158s0.803-1.58 0.161-2.212c-1.125-1.264-2.089-2.844-2.41-4.582-0.803-2.844-0.321-5.846 1.285-8.374s4.017-4.424 6.909-5.056c5.945-1.58 12.211 2.054 13.657 7.9 0.161 0.632 0.803 1.264 1.607 1.264h1.928c2.089 0 4.017 0.948 5.302 2.686 0.964 1.422 1.446 3.002 1.125 4.74s-1.285 3.16-2.571 4.108c-0.803 0.474-0.964 1.422-0.321 2.212 0.321 0.474 0.803 0.632 1.285 0.632 0.321 0 0.643-0.158 0.964-0.316 2.089-1.422 3.535-3.634 4.017-6.162s-0.482-4.898-1.928-7.11v0z"></path>
</symbol>
<symbol id="icon-heck" viewBox="0 0 32 32">
<path d="M31.467 0.904c-0.711-0.974-1.778-0.974-2.489 0l-18.311 25.078-7.644-10.47c-0.711-0.974-1.778-0.974-2.489 0s-0.711 2.435 0 3.409l8.889 12.174c0.356 0.487 0.711 0.73 1.244 0.73s0.889-0.244 1.245-0.73l19.556-26.783c0.711-0.974 0.711-2.435 0-3.409z"></path>
</symbol>
<symbol id="icon-Arrow" viewBox="0 0 32 32">
<path d="M16 0l-16 26.667 3.2 5.333 12.8-21.333 12.8 21.333 3.2-5.333-16-26.667z"></path>
</symbol>
<symbol id="icon-Plane" viewBox="0 0 32 32">
<path d="M0.007 21.086c-0.043-0.384 0.107-0.682 0.448-0.896l29.97-19.991c0.17-0.128 0.362-0.192 0.576-0.192s0.405 0.064 0.576 0.192c0.32 0.213 0.458 0.544 0.416 0.992l-4.99 30.002c-0.085 0.277-0.256 0.501-0.512 0.672-0.149 0.085-0.309 0.128-0.48 0.128-0.128 0-0.256-0.021-0.384-0.064l-9.692-3.87-2.047 3.423c-0.213 0.341-0.512 0.512-0.896 0.512s-0.672-0.171-0.864-0.512l-3.678-6.429-7.804-3.103c-0.384-0.171-0.597-0.458-0.64-0.864zM3.142 20.734l6.045 2.463c0.043 0.043 0.096 0.075 0.16 0.096l0.096 0.064 16.856-18.040-23.157 15.417zM10.21 24.060l2.783 4.862 16.121-25.173-18.903 20.311zM16.064 26.043c0.256 0.043 0.469 0.085 0.64 0.128l8.476 3.454 3.998-23.925-13.114 20.343z"></path>
</symbol>
<symbol id="icon-Phone1" viewBox="0 0 32 32">
<path d="M28.044 18.849c-1.298-0.146-2.596-0.438-3.75-0.877-1.587-0.584-3.318-0.146-4.616 1.023l-1.010 1.023c-2.596-1.753-4.904-3.945-6.635-6.721l1.010-1.023c1.154-1.169 1.587-3.069 1.010-4.676-0.433-1.169-0.721-2.484-0.866-3.799-0.288-2.192-2.164-3.799-4.327-3.799h-4.327c-0.144 0-0.288 0-0.433 0-1.154 0.146-2.164 0.731-2.885 1.607s-1.010 2.046-1.010 3.215c0.433 4.676 2.164 9.352 4.616 13.297 2.308 3.653 5.481 6.868 9.087 9.205 3.895 2.63 8.51 4.237 13.126 4.676 0.144 0 0.289 0 0.433 0 1.154 0 2.308-0.439 3.029-1.315s1.298-1.9 1.298-3.069v-4.384c0-2.192-1.587-4.091-3.75-4.384v-0zM28.91 23.233v4.384c0 0.438-0.144 0.731-0.433 1.023s-0.577 0.439-1.154 0.439c-4.183-0.439-8.222-1.9-11.828-4.238-3.318-2.046-6.058-4.968-8.222-8.329-2.308-3.653-3.75-7.744-4.183-11.982 0-0.438 0.144-0.731 0.288-1.023 0.288-0.292 0.721-0.584 1.154-0.584h4.327c0.721 0 1.298 0.584 1.442 1.315 0.144 1.461 0.577 3.068 1.154 4.384 0.144 0.584 0 1.169-0.288 1.607l-1.875 1.753c-0.433 0.438-0.577 1.169-0.288 1.753 2.164 3.945 5.337 7.16 9.232 9.352 0.577 0.292 1.298 0.292 1.731-0.292l1.875-1.9c0.433-0.438 1.010-0.584 1.587-0.292 1.442 0.584 2.885 0.877 4.327 1.169 0.577 0.146 1.154 0.731 1.154 1.461z"></path>
</symbol>
<symbol id="icon-stack" viewBox="0 0 32 32">
<path d="M32 10l-16-8-16 8 16 8 16-8zM16 4.655l10.689 5.345-10.689 5.345-10.689-5.345 10.689-5.345zM28.795 14.398l3.205 1.602-16 8-16-8 3.205-1.602 12.795 6.398zM28.795 20.398l3.205 1.602-16 8-16-8 3.205-1.602 12.795 6.398z"></path>
</symbol>
<symbol id="icon-box-remove" viewBox="0 0 32 32">
<path d="M26 2h-20l-6 6v21c0 0.552 0.448 1 1 1h30c0.552 0 1-0.448 1-1v-21l-6-6zM20 20v6h-8v-6h-6l10-8 10 8h-6zM4.828 6l2-2h18.343l2 2h-22.343z"></path>
</symbol>
<symbol id="icon-stats-bars2" viewBox="0 0 32 32">
<path d="M9 12h-6c-0.55 0-1 0.45-1 1v18c0 0.55 0.45 1 1 1h6c0.55 0 1-0.45 1-1v-18c0-0.55-0.45-1-1-1zM9 30h-6v-8h6v8zM19 8h-6c-0.55 0-1 0.45-1 1v22c0 0.55 0.45 1 1 1h6c0.55 0 1-0.45 1-1v-22c0-0.55-0.45-1-1-1zM19 30h-6v-10h6v10zM29 4h-6c-0.55 0-1 0.45-1 1v26c0 0.55 0.45 1 1 1h6c0.55 0 1-0.45 1-1v-26c0-0.55-0.45-1-1-1zM29 30h-6v-12h6v12z"></path>
</symbol>
<symbol id="icon-clipboard" viewBox="0 0 32 32">
<path d="M29 4h-9c0-2.209-1.791-4-4-4s-4 1.791-4 4h-9c-0.552 0-1 0.448-1 1v26c0 0.552 0.448 1 1 1h26c0.552 0 1-0.448 1-1v-26c0-0.552-0.448-1-1-1zM16 2c1.105 0 2 0.895 2 2s-0.895 2-2 2c-1.105 0-2-0.895-2-2s0.895-2 2-2zM28 30h-24v-24h4v3c0 0.552 0.448 1 1 1h14c0.552 0 1-0.448 1-1v-3h4v24z"></path>
<path d="M14 26.828l-6.414-7.414 1.828-1.828 4.586 3.586 8.586-7.586 1.829 1.828z"></path>
</symbol>
<symbol id="icon-menu" viewBox="0 0 32 32">
<path d="M2 6h28v6h-28zM2 14h28v6h-28zM2 22h28v6h-28z"></path>
</symbol>
<symbol id="icon-cross" viewBox="0 0 32 32">
<path d="M31.708 25.708c-0-0-0-0-0-0l-9.708-9.708 9.708-9.708c0-0 0-0 0-0 0.105-0.105 0.18-0.227 0.229-0.357 0.133-0.356 0.057-0.771-0.229-1.057l-4.586-4.586c-0.286-0.286-0.702-0.361-1.057-0.229-0.13 0.048-0.252 0.124-0.357 0.228 0 0-0 0-0 0l-9.708 9.708-9.708-9.708c-0-0-0-0-0-0-0.105-0.104-0.227-0.18-0.357-0.228-0.356-0.133-0.771-0.057-1.057 0.229l-4.586 4.586c-0.286 0.286-0.361 0.702-0.229 1.057 0.049 0.13 0.124 0.252 0.229 0.357 0 0 0 0 0 0l9.708 9.708-9.708 9.708c-0 0-0 0-0 0-0.104 0.105-0.18 0.227-0.229 0.357-0.133 0.355-0.057 0.771 0.229 1.057l4.586 4.586c0.286 0.286 0.702 0.361 1.057 0.229 0.13-0.049 0.252-0.124 0.357-0.229 0-0 0-0 0-0l9.708-9.708 9.708 9.708c0 0 0 0 0 0 0.105 0.105 0.227 0.18 0.357 0.229 0.356 0.133 0.771 0.057 1.057-0.229l4.586-4.586c0.286-0.286 0.362-0.702 0.229-1.057-0.049-0.13-0.124-0.252-0.229-0.357z"></path>
</symbol>
<symbol id="icon-loop" viewBox="0 0 32 32">
<path d="M4 10h20v6l8-8-8-8v6h-24v12h4zM28 22h-20v-6l-8 8 8 8v-6h24v-12h-4z"></path>
</symbol>
<symbol id="icon-mail2" viewBox="0 0 32 32">
<path d="M26.667 0h-21.333c-2.934 0-5.334 2.4-5.334 5.334v21.332c0 2.936 2.4 5.334 5.334 5.334h21.333c2.934 0 5.333-2.398 5.333-5.334v-21.332c0-2.934-2.399-5.334-5.333-5.334zM26.667 4c0.25 0 0.486 0.073 0.688 0.198l-11.355 9.388-11.355-9.387c0.202-0.125 0.439-0.198 0.689-0.198h21.333zM5.334 28c-0.060 0-0.119-0.005-0.178-0.013l7.051-9.78-0.914-0.914-7.293 7.293v-19.098l12 14.512 12-14.512v19.098l-7.293-7.293-0.914 0.914 7.051 9.78c-0.058 0.008-0.117 0.013-0.177 0.013h-21.333z"></path>
</symbol>
<symbol id="icon-facebook" viewBox="0 0 32 32">
<path d="M19 6h5v-6h-5c-3.86 0-7 3.14-7 7v3h-4v6h4v16h6v-16h5l1-6h-6v-3c0-0.542 0.458-1 1-1z"></path>
</symbol>
<symbol id="icon-instagram" viewBox="0 0 32 32">
<path d="M16 2.881c4.275 0 4.781 0.019 6.462 0.094 1.563 0.069 2.406 0.331 2.969 0.55 0.744 0.288 1.281 0.638 1.837 1.194 0.563 0.563 0.906 1.094 1.2 1.838 0.219 0.563 0.481 1.412 0.55 2.969 0.075 1.688 0.094 2.194 0.094 6.463s-0.019 4.781-0.094 6.463c-0.069 1.563-0.331 2.406-0.55 2.969-0.288 0.744-0.637 1.281-1.194 1.837-0.563 0.563-1.094 0.906-1.837 1.2-0.563 0.219-1.413 0.481-2.969 0.55-1.688 0.075-2.194 0.094-6.463 0.094s-4.781-0.019-6.463-0.094c-1.563-0.069-2.406-0.331-2.969-0.55-0.744-0.288-1.281-0.637-1.838-1.194-0.563-0.563-0.906-1.094-1.2-1.837-0.219-0.563-0.481-1.413-0.55-2.969-0.075-1.688-0.094-2.194-0.094-6.463s0.019-4.781 0.094-6.463c0.069-1.563 0.331-2.406 0.55-2.969 0.288-0.744 0.638-1.281 1.194-1.838 0.563-0.563 1.094-0.906 1.838-1.2 0.563-0.219 1.412-0.481 2.969-0.55 1.681-0.075 2.188-0.094 6.463-0.094zM16 0c-4.344 0-4.887 0.019-6.594 0.094-1.7 0.075-2.869 0.35-3.881 0.744-1.056 0.412-1.95 0.956-2.837 1.85-0.894 0.888-1.438 1.781-1.85 2.831-0.394 1.019-0.669 2.181-0.744 3.881-0.075 1.713-0.094 2.256-0.094 6.6s0.019 4.887 0.094 6.594c0.075 1.7 0.35 2.869 0.744 3.881 0.413 1.056 0.956 1.95 1.85 2.837 0.887 0.887 1.781 1.438 2.831 1.844 1.019 0.394 2.181 0.669 3.881 0.744 1.706 0.075 2.25 0.094 6.594 0.094s4.888-0.019 6.594-0.094c1.7-0.075 2.869-0.35 3.881-0.744 1.050-0.406 1.944-0.956 2.831-1.844s1.438-1.781 1.844-2.831c0.394-1.019 0.669-2.181 0.744-3.881 0.075-1.706 0.094-2.25 0.094-6.594s-0.019-4.887-0.094-6.594c-0.075-1.7-0.35-2.869-0.744-3.881-0.394-1.063-0.938-1.956-1.831-2.844-0.887-0.887-1.781-1.438-2.831-1.844-1.019-0.394-2.181-0.669-3.881-0.744-1.712-0.081-2.256-0.1-6.6-0.1v0z"></path>
<path d="M16 7.781c-4.537 0-8.219 3.681-8.219 8.219s3.681 8.219 8.219 8.219 8.219-3.681 8.219-8.219c0-4.537-3.681-8.219-8.219-8.219zM16 21.331c-2.944 0-5.331-2.387-5.331-5.331s2.387-5.331 5.331-5.331c2.944 0 5.331 2.387 5.331 5.331s-2.387 5.331-5.331 5.331z"></path>
<path d="M26.462 7.456c0 1.060-0.859 1.919-1.919 1.919s-1.919-0.859-1.919-1.919c0-1.060 0.859-1.919 1.919-1.919s1.919 0.859 1.919 1.919z"></path>
</symbol>
<symbol id="icon-twitter" viewBox="0 0 32 32">
<path d="M32 7.075c-1.175 0.525-2.444 0.875-3.769 1.031 1.356-0.813 2.394-2.1 2.887-3.631-1.269 0.75-2.675 1.3-4.169 1.594-1.2-1.275-2.906-2.069-4.794-2.069-3.625 0-6.563 2.938-6.563 6.563 0 0.512 0.056 1.012 0.169 1.494-5.456-0.275-10.294-2.888-13.531-6.862-0.563 0.969-0.887 2.1-0.887 3.3 0 2.275 1.156 4.287 2.919 5.463-1.075-0.031-2.087-0.331-2.975-0.819 0 0.025 0 0.056 0 0.081 0 3.181 2.263 5.838 5.269 6.437-0.55 0.15-1.131 0.231-1.731 0.231-0.425 0-0.831-0.044-1.237-0.119 0.838 2.606 3.263 4.506 6.131 4.563-2.25 1.762-5.075 2.813-8.156 2.813-0.531 0-1.050-0.031-1.569-0.094 2.913 1.869 6.362 2.95 10.069 2.95 12.075 0 18.681-10.006 18.681-18.681 0-0.287-0.006-0.569-0.019-0.85 1.281-0.919 2.394-2.075 3.275-3.394z"></path>
</symbol>
<symbol id="icon-github" viewBox="0 0 32 32">
<path d="M16 0.395c-8.836 0-16 7.163-16 16 0 7.069 4.585 13.067 10.942 15.182 0.8 0.148 1.094-0.347 1.094-0.77 0-0.381-0.015-1.642-0.022-2.979-4.452 0.968-5.391-1.888-5.391-1.888-0.728-1.849-1.776-2.341-1.776-2.341-1.452-0.993 0.11-0.973 0.11-0.973 1.606 0.113 2.452 1.649 2.452 1.649 1.427 2.446 3.743 1.739 4.656 1.33 0.143-1.034 0.558-1.74 1.016-2.14-3.554-0.404-7.29-1.777-7.29-7.907 0-1.747 0.625-3.174 1.649-4.295-0.166-0.403-0.714-2.030 0.155-4.234 0 0 1.344-0.43 4.401 1.64 1.276-0.355 2.645-0.532 4.005-0.539 1.359 0.006 2.729 0.184 4.008 0.539 3.054-2.070 4.395-1.64 4.395-1.64 0.871 2.204 0.323 3.831 0.157 4.234 1.026 1.12 1.647 2.548 1.647 4.295 0 6.145-3.743 7.498-7.306 7.895 0.574 0.497 1.085 1.47 1.085 2.963 0 2.141-0.019 3.864-0.019 4.391 0 0.426 0.288 0.925 1.099 0.768 6.354-2.118 10.933-8.113 10.933-15.18 0-8.837-7.164-16-16-16z"></path>
</symbol>
<symbol id="icon-safari" viewBox="0 0 32 32">
<path d="M16 0c-8.838 0-16 7.162-16 16s7.162 16 16 16 16-7.163 16-16-7.163-16-16-16zM29.95 14.775l-0.031-0.331c0.006 0.113 0.019 0.219 0.031 0.331zM27.762 8.4l-0.225-0.338c0.075 0.113 0.15 0.225 0.225 0.338zM26.894 7.206l-0.137-0.169c0.050 0.056 0.094 0.112 0.137 0.169zM24.956 5.237l-0.169-0.138c0.063 0.050 0.113 0.094 0.169 0.138zM23.938 4.463l-0.337-0.225c0.113 0.075 0.225 0.15 0.337 0.225zM17.556 2.087l-0.337-0.031c0.113 0.006 0.225 0.019 0.337 0.031zM14.775 2.050l-0.338 0.031c0.113-0.006 0.225-0.019 0.338-0.031zM8.4 4.237l-0.338 0.225c0.113-0.075 0.225-0.15 0.338-0.225zM7.206 5.106l-0.162 0.131c0.056-0.044 0.106-0.088 0.162-0.131zM5.237 7.044l-0.138 0.169c0.050-0.056 0.094-0.112 0.138-0.169zM4.463 8.063l-0.225 0.338c0.075-0.113 0.15-0.225 0.225-0.338zM2.087 14.444l-0.031 0.338c0.006-0.113 0.019-0.225 0.031-0.338zM2.050 17.225l0.031 0.337c-0.006-0.113-0.019-0.225-0.031-0.337zM4.237 23.594l0.225 0.337c-0.075-0.106-0.15-0.219-0.225-0.337zM4.5 23.988l2.494-1.669-0.275-0.419-2.494 1.669c-1.131-1.756-1.875-3.775-2.125-5.95l1.494-0.15-0.050-0.5-1.494 0.15c-0.025-0.288-0.038-0.581-0.044-0.875h3v-0.5h-3c0.006-0.294 0.019-0.581 0.044-0.875l1.494 0.144 0.050-0.5-1.494-0.144c0.25-2.175 1-4.194 2.131-5.95l2.494 1.669 0.275-0.419-2.5-1.656c0.169-0.237 0.338-0.475 0.519-0.7l1.156 0.95 0.319-0.388-1.156-0.95c0.188-0.225 0.388-0.438 0.588-0.65l2.119 2.119 0.356-0.356-2.119-2.119c0.213-0.2 0.425-0.4 0.644-0.588l0.95 1.162 0.387-0.319-0.95-1.156c0.231-0.181 0.463-0.356 0.7-0.525l1.669 2.494 0.419-0.275-1.669-2.494c1.756-1.131 3.775-1.875 5.95-2.125l0.15 1.494 0.5-0.050-0.15-1.494c0.287-0.025 0.581-0.038 0.875-0.044v3h0.5v-3c0.294 0.006 0.581 0.019 0.875 0.044l-0.144 1.494 0.5 0.050 0.144-1.494c2.175 0.25 4.194 1 5.95 2.131l-1.669 2.494 0.419 0.275 1.669-2.494c0.238 0.169 0.475 0.338 0.7 0.519l-0.95 1.156 0.387 0.319 0.95-1.156c0.225 0.188 0.438 0.388 0.65 0.588l-0.8 0.781-10.938 7.294-7.294 10.937-0.781 0.781c-0.2-0.212-0.4-0.425-0.588-0.644l1.156-0.95-0.319-0.387-1.156 0.95c-0.181-0.225-0.35-0.462-0.519-0.7zM5.237 24.956c-0.044-0.056-0.088-0.106-0.131-0.163l0.131 0.163zM7.044 26.762l0.162 0.131c-0.056-0.044-0.106-0.087-0.162-0.131zM8.063 27.531l0.338 0.225c-0.113-0.069-0.225-0.144-0.338-0.225zM14.444 29.913l0.338 0.031c-0.113-0.006-0.225-0.019-0.338-0.031zM17.225 29.95l0.331-0.031c-0.113 0.006-0.219 0.019-0.331 0.031zM23.6 27.762l0.337-0.225c-0.113 0.075-0.225 0.15-0.337 0.225zM24.794 26.894l0.169-0.137c-0.056 0.050-0.113 0.094-0.169 0.137zM25.887 25.913l0.025-0.025c-0.006 0.006-0.019 0.019-0.025 0.025zM26.762 24.956l0.137-0.169c-0.050 0.056-0.094 0.113-0.137 0.169zM26.981 24.688l-1.156-0.95-0.319 0.387 1.156 0.95c-0.188 0.225-0.387 0.438-0.587 0.65l-2.119-2.119-0.356 0.356 2.119 2.119c-0.212 0.2-0.425 0.4-0.644 0.587l-0.95-1.163-0.387 0.319 0.95 1.156c-0.231 0.181-0.462 0.356-0.7 0.525l-1.669-2.494-0.419 0.275 1.669 2.494c-1.756 1.131-3.775 1.875-5.95 2.125l-0.15-1.494-0.5 0.050 0.15 1.494c-0.288 0.025-0.581 0.038-0.875 0.044v-3h-0.5v3c-0.294-0.006-0.581-0.019-0.875-0.044l0.144-1.494-0.5-0.050-0.144 1.494c-2.175-0.25-4.194-1-5.95-2.131l1.669-2.494-0.419-0.275-1.656 2.494c-0.237-0.169-0.475-0.337-0.7-0.519l0.95-1.156-0.388-0.319-0.95 1.156c-0.225-0.188-0.438-0.387-0.65-0.587l0.787-0.781 10.937-7.294 7.294-10.938 0.781-0.781c0.2 0.213 0.4 0.425 0.587 0.644l-1.156 0.95 0.319 0.387 1.156-0.95c0.181 0.231 0.356 0.463 0.525 0.7l-2.494 1.669 0.275 0.419 2.494-1.669c1.131 1.756 1.875 3.775 2.125 5.95l-1.494 0.15 0.050 0.5 1.494-0.15c0.025 0.287 0.038 0.581 0.044 0.875h-3v0.5h3c-0.006 0.294-0.019 0.581-0.044 0.875l-1.494-0.144-0.050 0.5 1.494 0.144c-0.25 2.175-1 4.194-2.131 5.95l-2.494-1.669-0.275 0.419 2.494 1.669c-0.163 0.225-0.337 0.456-0.519 0.688zM29.95 17.219c-0.012 0.113-0.019 0.225-0.031 0.337l0.031-0.337zM27.762 23.6c-0.075 0.113-0.15 0.225-0.225 0.337l0.225-0.337z"></path>
<path d="M13.517 2.221l0.585 2.942-0.49 0.098-0.585-2.942 0.49-0.098z"></path>
<path d="M18.489 29.78l-0.585-2.942 0.49-0.098 0.585 2.942-0.49 0.098z"></path>
<path d="M12.176 2.528l0.436 1.435-0.478 0.145-0.436-1.435 0.478-0.145z"></path>
<path d="M19.826 29.465l-0.436-1.435 0.478-0.145 0.436 1.435-0.478 0.145z"></path>
<path d="M10.875 2.972l1.148 2.772-0.462 0.191-1.148-2.772 0.462-0.191z"></path>
<path d="M21.129 29.030l-1.148-2.772 0.462-0.191 1.148 2.772-0.462 0.191z"></path>
<path d="M9.176 3.771l0.441-0.236 0.707 1.323-0.441 0.236-0.707-1.323z"></path>
<path d="M22.816 28.228l-0.441 0.236-0.707-1.323 0.441-0.236 0.707 1.323z"></path>
<path d="M3.769 9.182l1.323 0.707-0.236 0.441-1.323-0.707 0.236-0.441z"></path>
<path d="M28.226 22.819l-1.323-0.707 0.236-0.441 1.323 0.707-0.236 0.441z"></path>
<path d="M5.744 12.019l-2.772-1.148 0.191-0.462 2.772 1.148-0.191 0.462z"></path>
<path d="M26.26 19.978l2.772 1.148-0.191 0.462-2.772-1.148 0.191-0.462z"></path>
<path d="M2.673 11.7l1.436 0.435-0.145 0.479-1.436-0.435 0.145-0.479z"></path>
<path d="M29.322 20.302l-1.436-0.435 0.145-0.479 1.436 0.435-0.145 0.479z"></path>
<path d="M2.315 13.024l2.942 0.585-0.098 0.49-2.942-0.585 0.098-0.49z"></path>
<path d="M29.679 18.976l-2.942-0.585 0.098-0.49 2.942 0.585-0.098 0.49z"></path>
<path d="M2.218 18.486l2.942-0.585 0.098 0.49-2.942 0.585-0.098-0.49z"></path>
<path d="M29.776 13.513l-2.942 0.585-0.098-0.49 2.942-0.585 0.098 0.49z"></path>
<path d="M2.53 19.829l1.435-0.436 0.145 0.478-1.435 0.436-0.145-0.478z"></path>
<path d="M29.468 12.178l-1.435 0.436-0.145-0.478 1.435-0.436 0.145 0.478z"></path>
<path d="M3.161 21.591l-0.191-0.462 2.772-1.148 0.191 0.462-2.772 1.148z"></path>
<path d="M28.837 10.413l0.191 0.462-2.772 1.148-0.191-0.462 2.772-1.148z"></path>
<path d="M3.776 22.821l-0.236-0.441 1.323-0.707 0.236 0.441-1.323 0.707z"></path>
<path d="M28.233 9.181l0.236 0.441-1.323 0.707-0.236-0.441 1.323-0.707z"></path>
<path d="M9.621 28.464l-0.441-0.236 0.707-1.323 0.441 0.236-0.707 1.323z"></path>
<path d="M22.377 3.534l0.441 0.236-0.707 1.323-0.441-0.236 0.707-1.323z"></path>
<path d="M10.415 28.837l1.148-2.772 0.462 0.191-1.148 2.772-0.462-0.191z"></path>
<path d="M21.59 3.16l-1.148 2.772-0.462-0.191 1.148-2.772 0.462 0.191z"></path>
<path d="M12.176 29.47l-0.478-0.145 0.435-1.435 0.478 0.145-0.435 1.435z"></path>
<path d="M19.823 2.528l0.479 0.145-0.435 1.436-0.479-0.145 0.435-1.436z"></path>
<path d="M13.515 29.776l-0.49-0.098 0.585-2.942 0.49 0.098-0.585 2.942z"></path>
<path d="M18.485 2.218l0.49 0.098-0.585 2.942-0.49-0.098 0.585-2.942z"></path>
</symbol>
</defs>
</svg>
